<?xml version="1.0" encoding="UTF-8" standalone="no"?>
<!DOCTYPE svg PUBLIC "-//W3C//DTD SVG 1.1//EN"
 "http://www.w3.org/Graphics/SVG/1.1/DTD/svg11.dtd">
<!-- Generated by graphviz version 2.38.0 (20140413.2041)
 -->
<!-- Title: ideas Pages: 1 -->
<svg width="586pt" height="166pt"
 viewBox="0.00 0.00 586.02 165.62" xmlns="http://www.w3.org/2000/svg" xmlns:xlink="http://www.w3.org/1999/xlink">
<g id="graph0" class="graph" transform="scale(1 1) rotate(0) translate(4 161.622)">
<title>ideas</title>
<polygon fill="white" stroke="none" points="-4,4 -4,-161.622 582.016,-161.622 582.016,4 -4,4"/>
<!-- Ideas -->
<g id="node1" class="node"><title>Ideas</title>
<ellipse fill="none" stroke="black" cx="276.033" cy="-127.217" rx="45.9239" ry="30.3115"/>
<text text-anchor="start" x="262.033" y="-123.017" font-family="Times,serif" font-size="14.00">Ideas</text>
</g>
<!-- Design -->
<g id="node2" class="node"><title>Design</title>
<ellipse fill="none" stroke="black" cx="53.033" cy="-30.4056" rx="53.066" ry="30.3115"/>
<text text-anchor="start" x="34.033" y="-26.2056" font-family="Times,serif" font-size="14.00">Design</text>
</g>
<!-- Ideas&#45;&gt;Design -->
<g id="edge1" class="edge"><title>Ideas&#45;&gt;Design</title>
<path fill="none" stroke="black" d="M236.732,-110.975C203.971,-98.0974 156.182,-78.9099 115.033,-60.8112 110.872,-58.981 106.574,-57.0432 102.273,-55.0704"/>
<polygon fill="black" stroke="black" points="103.446,-51.7565 92.9013,-50.7241 100.5,-58.1068 103.446,-51.7565"/>
</g>
<!-- Code -->
<g id="node3" class="node"><title>Code</title>
<ellipse fill="none" stroke="black" cx="170.033" cy="-30.4056" rx="45.9239" ry="30.3115"/>
<text text-anchor="start" x="156.033" y="-26.2056" font-family="Times,serif" font-size="14.00">Code</text>
</g>
<!-- Ideas&#45;&gt;Code -->
<g id="edge2" class="edge"><title>Ideas&#45;&gt;Code</title>
<path fill="none" stroke="black" d="M249.285,-102.292C235.727,-90.165 219.102,-75.2954 204.587,-62.3122"/>
<polygon fill="black" stroke="black" points="206.56,-59.3808 196.773,-55.3228 201.893,-64.5983 206.56,-59.3808"/>
</g>
<!-- Test -->
<g id="node4" class="node"><title>Test</title>
<ellipse fill="none" stroke="black" cx="276.033" cy="-30.4056" rx="42.3529" ry="30.3115"/>
<text text-anchor="start" x="264.033" y="-26.2056" font-family="Times,serif" font-size="14.00">Test</text>
</g>
<!-- Ideas&#45;&gt;Test -->
<g id="edge3" class="edge"><title>Ideas&#45;&gt;Test</title>
<path fill="none" stroke="black" d="M276.033,-96.7376C276.033,-88.6219 276.033,-79.6842 276.033,-71.0939"/>
<polygon fill="black" stroke="black" points="279.533,-70.8665 276.033,-60.8665 272.533,-70.8665 279.533,-70.8665"/>
</g>
<!-- Deploy -->
<g id="node5" class="node"><title>Deploy</title>
<ellipse fill="none" stroke="black" cx="390.033" cy="-30.4056" rx="53.9813" ry="30.3115"/>
<text text-anchor="start" x="370.033" y="-26.2056" font-family="Times,serif" font-size="14.00">Deploy</text>
</g>
<!-- Ideas&#45;&gt;Deploy -->
<g id="edge4" class="edge"><title>Ideas&#45;&gt;Deploy</title>
<path fill="none" stroke="black" d="M303.921,-103.023C318.515,-90.8855 336.59,-75.8528 352.406,-62.6987"/>
<polygon fill="black" stroke="black" points="354.991,-65.1018 360.441,-56.0165 350.515,-59.7199 354.991,-65.1018"/>
</g>
<!-- Monitor -->
<g id="node6" class="node"><title>Monitor</title>
<ellipse fill="none" stroke="black" cx="520.033" cy="-30.4056" rx="57.9655" ry="30.3115"/>
<text text-anchor="start" x="497.033" y="-26.2056" font-family="Times,serif" font-size="14.00">Monitor</text>
</g>
<!-- Ideas&#45;&gt;Monitor -->
<g id="edge5" class="edge"><title>Ideas&#45;&gt;Monitor</title>
<path fill="none" stroke="black" d="M316.011,-112.212C352.056,-99.4038 406.404,-79.6394 453.033,-60.8112 457.77,-58.8983 462.673,-56.8607 467.572,-54.7847"/>
<polygon fill="black" stroke="black" points="469.131,-57.9244 476.944,-50.768 466.373,-51.4904 469.131,-57.9244"/>
</g>
</g>
</svg>
